Coordinates
version=1
nRows=5
nColumns=42
inDegrees=yes

Units are S.I. units (second, meters, Newtons, ...)
If the header above contains a line with 'inDegrees', this indicates whether rotational values are in degrees (yes) or radians (no).

endheader
time	pelvis_tilt	pelvis_list	pelvis_rotation	pelvis_tx	pelvis_ty	pelvis_tz	hip_flexion_r	hip_adduction_r	hip_rotation_r	knee_angle_r	knee_adduction_r	knee_angle_r_beta	ankle_angle_r	subtalar_angle_r	mtp_angle_r	hip_flexion_l	hip_adduction_l	hip_rotation_l	knee_angle_l	knee_adduction_l	knee_angle_l_beta	ankle_angle_l	subtalar_angle_l	mtp_angle_l	lumbar_extension	lumbar_bending	lumbar_rotation	arm_flex_r	arm_add_r	arm_rot_r	elbow_flex_r	pro_sup_r	wrist_flex_r	wrist_dev_r	arm_flex_l	arm_add_l	arm_rot_l	elbow_flex_l	pro_sup_l	wrist_flex_l	wrist_dev_l
      0.66000000	     12.73697972	     -4.48136226	     -9.07214472	     -0.43846143	      0.84174645	     -0.17652240	    -28.29741719	      6.75078524	    -10.46547556	     17.11424143	     -3.36759824	      0.29869986	     27.23535320	      3.99521082	     -7.61117141	      9.03004997	     -4.27804090	    -16.58531483	      9.51565625	      4.33636855	      0.16607953	      8.72261470	     -4.50694192	     -7.61117141	    -27.34366828	     -0.46700650	     13.38266402	     23.83413482	     -9.91240426	      9.89792764	     50.15501715	     90.00000001	      0.00000000	      0.00000000	     -9.68077028	     -0.17176902	    -24.65146567	     19.62946693	     90.00000001	      0.00000000	      0.00000000
      0.67000000	     12.66092743	     -4.18504496	     -9.23609978	     -0.42662431	      0.84123069	     -0.17651908	    -28.37394931	      6.05240692	    -10.61975109	     18.44953499	     -3.41994278	      0.32200513	     26.37057463	      3.96313587	     -7.60946511	      9.05081506	     -3.68234547	    -16.53305436	     10.85347325	      3.94388359	      0.18942884	      8.33626580	     -5.14856773	     -7.60946511	    -27.13831819	     -0.85767677	     13.34213727	     23.28570593	     -9.75686258	      9.64311213	     49.44651355	     90.00000001	      0.00000000	      0.00000000	     -9.57754968	     -0.23216596	    -24.73668783	     19.51681283	     90.00000001	      0.00000000	      0.00000000
      0.68000000	     12.57319499	     -3.93697116	     -9.35570650	     -0.41474113	      0.84100451	     -0.17617258	    -28.46611297	      5.63082715	    -10.35499278	     19.62997757	     -3.75139927	      0.34260774	     25.73390020	      4.01171440	     -7.60834847	      8.91194724	     -3.21799225	    -15.90776390	     11.91030810	      3.79483730	      0.20787409	      8.06570803	     -5.19743602	     -7.60834847	    -26.95285492	     -1.27609668	     13.43357058	     22.56647862	     -9.73646146	      9.50008074	     48.88364240	     90.00000001	      0.00000000	      0.00000000	     -9.38120994	     -0.39641294	    -24.78293415	     19.58768867	     90.00000001	      0.00000000	      0.00000000
      0.69000000	     12.54349477	     -3.41006891	     -9.39778268	     -0.40280124	      0.84103221	     -0.17639304	    -28.13782667	      4.68919968	    -11.08048708	     21.71540966	     -3.94246302	      0.37900540	     24.50523295	      3.85863060	     -7.60307549	      8.88117503	     -2.33893589	    -15.71182324	     13.17996784	      3.35111489	      0.23003383	      7.46709052	     -5.94912101	     -7.60307549	    -26.80208154	     -1.90556501	     13.26449323	     21.88289979	     -9.43891056	      8.70032605	     47.92246137	     90.00000001	      0.00000000	      0.00000000	     -8.92885278	     -0.52652210	    -25.28496948	     19.27768716	     90.00000001	      0.00000000	      0.00000000
      0.70000000	     12.64408212	     -3.13532862	     -9.45109263	     -0.39096223	      0.84168057	     -0.17635951	    -28.07035274	      4.10172602	    -10.71847513	     23.54587270	     -4.03682383	      0.41095300	     22.89838131	      3.61437994	     -7.60177887	      8.53408546	     -1.82682979	    -15.08038902	     14.26019595	      3.18605559	      0.24888737	      7.45464237	     -6.32052838	     -7.60177887	    -26.87590973	     -2.33679023	     13.22701998	     21.12982122	     -9.34431857	      8.52380184	     47.15990858	     90.00000001	      0.00000000	      0.00000000	     -8.48121905	     -0.68399651	    -25.35168983	     19.24833820	     90.00000001	      0.00000000	      0.00000000
